<?xml version="1.0" encoding="UTF-8" standalone="no"?>
<svg xmlns="http://www.w3.org/2000/svg" height="48" width="48" viewBox="0 0 48 48">
  <path d="M24 38.75Q23.35 38.75 22.925 38.325Q22.5 37.9 22.5 37.25V25.5H10.75Q10.1 25.5 9.675 25.075Q9.25 24.65 9.25 24Q9.25 23.35 9.675 22.925Q10.1 22.5 10.75 22.5H22.5V10.75Q22.5 10.1 22.925 9.675Q23.35 9.25 24 9.25Q24.65 9.25 25.075 9.675Q25.5 10.1 25.5 10.75V22.5H37.25Q37.9 22.5 38.325 22.925Q38.75 23.35 38.75 24Q38.75 24.65 38.325 25.075Q37.9 25.5 37.25 25.5H25.5V37.25Q25.5 37.9 25.075 38.325Q24.65 38.75 24 38.75Z"/>
</svg> 