<?xml version="1.0" encoding="UTF-8" standalone="no"?>
<svg xmlns="http://www.w3.org/2000/svg" height="48" width="48" viewBox="0 0 48 48">
  <path d="M12 34V8.85Q12 7.5 13 6.75Q14 6 15.35 6H36.5Q37.95 6 39.1 7.15Q40.25 8.3 40.25 9.75V34Q40.25 35.45 39.1 36.6Q37.95 37.75 36.5 37.75H15.35Q13.5 37.75 12.75 38.875Q12 40 12 41.5V34ZM15.35 34H36.5Q36.5 34 36.5 34Q36.5 34 36.5 34V9.75Q36.5 9.75 36.5 9.75Q36.5 9.75 36.5 9.75H15.35Q15.35 9.75 15.35 9.75Q15.35 9.75 15.35 9.75V34Q15.35 34 15.35 34Q15.35 34 15.35 34ZM7.65 41.75H33.5V44.5H7.65Q6.2 44.5 5.1 43.4Q4 42.3 4 40.85V14.5H6.75V40.85Q6.75 41.1 6.95 41.425Q7.15 41.75 7.65 41.75ZM15.35 9.75Q15.35 9.75 15.35 9.75Q15.35 9.75 15.35 9.75V34Q15.35 34 15.35 34Q15.35 34 15.35 34Q15.35 34 15.35 34Q15.35 34 15.35 34V9.75Q15.35 9.75 15.35 9.75Q15.35 9.75 15.35 9.75Z"/>
</svg> 