<?xml version="1.0" encoding="UTF-8" standalone="no"?>
<svg xmlns="http://www.w3.org/2000/svg" height="48" width="48" viewBox="0 0 48 48">
  <path d="M24 31Q28.85 31 32.175 27.675Q35.5 24.35 35.5 19.5Q35.5 14.65 32.175 11.325Q28.85 8 24 8Q19.15 8 15.825 11.325Q12.5 14.65 12.5 19.5Q12.5 24.35 15.825 27.675Q19.15 31 24 31ZM24 28Q20.3 28 17.65 25.35Q15 22.7 15 19Q15 15.3 17.65 12.65Q20.3 10 24 10Q27.7 10 30.35 12.65Q33 15.3 33 19Q33 22.7 30.35 25.35Q27.7 28 24 28ZM3.5 20.5Q3.5 19.65 4.075 19.075Q4.65 18.5 5.5 18.5H9.5Q10.35 18.5 10.925 19.075Q11.5 19.65 11.5 20.5Q11.5 21.35 10.925 21.925Q10.35 22.5 9.5 22.5H5.5Q4.65 22.5 4.075 21.925Q3.5 21.35 3.5 20.5ZM36.5 20.5Q36.5 19.65 37.075 19.075Q37.65 18.5 38.5 18.5H42.5Q43.35 18.5 43.925 19.075Q44.5 19.65 44.5 20.5Q44.5 21.35 43.925 21.925Q43.35 22.5 42.5 22.5H38.5Q37.65 22.5 37.075 21.925Q36.5 21.35 36.5 20.5ZM24 3.5Q23.15 3.5 22.575 2.925Q22 2.35 22 1.5V-2.5Q22 -3.35 22.575 -3.925Q23.15 -4.5 24 -4.5Q24.85 -4.5 25.425 -3.925Q26 -3.35 26 -2.5V1.5Q26 2.35 25.425 2.925Q24.85 3.5 24 3.5ZM24 43.5Q23.15 43.5 22.575 42.925Q22 42.35 22 41.5V37.5Q22 36.65 22.575 36.075Q23.15 35.5 24 35.5Q24.85 35.5 25.425 36.075Q26 36.65 26 37.5V41.5Q26 42.35 25.425 42.925Q24.85 43.5 24 43.5ZM12 8.05L9.15 5.25Q8.6 4.65 8.6 3.85Q8.6 3.05 9.2 2.45Q9.8 1.85 10.6 1.85Q11.4 1.85 12 2.45L14.95 5.35Q15.55 5.95 15.55 6.75Q15.55 7.55 14.9 8.15Q14.35 8.7 13.55 8.7Q12.75 8.7 12 8.05ZM36.1 32.15L33.15 29.2Q32.55 28.6 32.55 27.8Q32.55 27 33.2 26.4Q33.75 25.85 34.55 25.85Q35.35 25.85 36 26.5L38.9 29.3Q39.5 29.95 39.5 30.725Q39.5 31.5 38.85 32.15Q38.3 32.65 37.475 32.65Q36.65 32.65 36.1 32.15ZM33.15 8.05Q32.55 7.45 32.55 6.65Q32.55 5.85 33.15 5.3L36 2.45Q36.65 1.85 37.45 1.85Q38.25 1.85 38.85 2.45Q39.45 3.05 39.45 3.85Q39.45 4.65 38.85 5.25L36 8.05Q35.4 8.7 34.6 8.7Q33.8 8.7 33.15 8.05ZM9.05 32.15Q8.45 31.55 8.45 30.75Q8.45 29.95 9.1 29.35L12 26.5Q12.6 25.9 13.425 25.9Q14.25 25.9 14.85 26.5Q15.5 27.05 15.5 27.875Q15.5 28.7 14.85 29.35L12 32.15Q11.35 32.75 10.55 32.75Q9.75 32.75 9.05 32.15Z" fill="#5E97F6"/>
</svg> 