<?xml version="1.0" encoding="UTF-8" standalone="no"?>
<svg xmlns="http://www.w3.org/2000/svg" height="48" width="48" viewBox="0 0 48 48">
  <path d="M24.2 35Q25.55 35 26.525 33.975Q27.5 32.95 27.5 31.65Q27.5 30.3 26.475 29.3Q25.45 28.3 24.15 28.3Q22.8 28.3 21.825 29.325Q20.85 30.35 20.85 31.65Q20.85 33 21.875 34Q22.9 35 24.2 35ZM24.2 19.75Q25.55 19.75 26.525 18.725Q27.5 17.7 27.5 16.4Q27.5 15.05 26.475 14.05Q25.45 13.05 24.15 13.05Q22.8 13.05 21.825 14.075Q20.85 15.1 20.85 16.4Q20.85 17.75 21.875 18.75Q22.9 19.75 24.2 19.75ZM24.2 27.3Q25.65 27.3 26.725 26.2Q27.8 25.1 27.8 23.65Q27.8 22.2 26.7 21.125Q25.6 20.05 24.15 20.05Q22.7 20.05 21.625 21.15Q20.55 22.25 20.55 23.7Q20.55 25.15 21.65 26.225Q22.75 27.3 24.2 27.3Z" fill="#5E97F6"/>
  <path d="M19.4 44Q18.35 44 17.5 43.425Q16.65 42.85 16.35 41.85L15.45 38.65Q14.75 38.35 14 37.9Q13.25 37.45 12.65 36.95L9.65 38.35Q8.65 38.75 7.625 38.45Q6.6 38.15 6.05 37.15L2.9 31.8Q2.35 30.8 2.6 29.75Q2.85 28.7 3.75 28.1L6.55 26.05Q6.5 25.7 6.5 25.325Q6.5 24.95 6.5 24.5Q6.5 24.05 6.5 23.675Q6.5 23.3 6.55 22.95L3.75 20.9Q2.85 20.3 2.6 19.225Q2.35 18.15 2.9 17.2L6.05 11.85Q6.6 10.85 7.625 10.55Q8.65 10.25 9.65 10.65L12.65 12.05Q13.25 11.55 14 11.1Q14.75 10.65 15.45 10.35L16.35 7.15Q16.65 6.15 17.5 5.575Q18.35 5 19.4 5H25.65Q26.7 5 27.55 5.575Q28.4 6.15 28.7 7.15L29.6 10.35Q30.3 10.65 31.05 11.1Q31.8 11.55 32.4 12.05L35.4 10.65Q36.4 10.25 37.425 10.55Q38.45 10.85 39 11.85L42.15 17.2Q42.7 18.2 42.45 19.25Q42.2 20.3 41.3 20.9L38.5 22.95Q38.55 23.3 38.55 23.675Q38.55 24.05 38.55 24.5Q38.55 24.95 38.55 25.325Q38.55 25.7 38.5 26.05L41.3 28.1Q42.2 28.7 42.475 29.775Q42.75 30.85 42.15 31.8L39 37.15Q38.45 38.15 37.425 38.45Q36.4 38.75 35.4 38.35L32.4 36.95Q31.8 37.45 31.05 37.9Q30.3 38.35 29.6 38.65L28.7 41.85Q28.4 42.85 27.55 43.425Q26.7 44 25.65 44H19.4ZM19.85 41H25.2L26.45 36.6Q27.75 36.25 28.9 35.625Q30.05 35 31.05 34.1L35.05 36.05L37.75 31.5L34.5 28.7Q34.65 28 34.7 27.325Q34.75 26.65 34.75 25.95Q34.75 25.25 34.7 24.6Q34.65 23.95 34.5 23.3L37.75 20.45L35.05 15.95L31.05 17.9Q30.05 17 28.9 16.375Q27.75 15.75 26.45 15.4L25.2 11H19.85L18.6 15.4Q17.3 15.75 16.15 16.375Q15 17 14 17.9L10 15.95L7.3 20.45L10.55 23.3Q10.4 23.95 10.35 24.6Q10.3 25.25 10.3 25.95Q10.3 26.65 10.35 27.325Q10.4 28 10.55 28.7L7.3 31.5L10 36.05L14 34.1Q15 35 16.15 35.625Q17.3 36.25 18.6 36.6L19.85 41ZM22.5 26.5Q22.5 26.5 22.5 26.5Q22.5 26.5 22.5 26.5Q22.5 26.5 22.5 26.5Q22.5 26.5 22.5 26.5Q22.5 26.5 22.5 26.5Q22.5 26.5 22.5 26.5Q22.5 26.5 22.5 26.5Q22.5 26.5 22.5 26.5Z" fill="#5E97F6"/>
</svg> 