<?xml version="1.0" encoding="UTF-8" standalone="no"?>
<svg xmlns="http://www.w3.org/2000/svg" height="48" width="48" viewBox="0 0 48 48">
  <path d="M24 44Q19.9 44 16.25 42.425Q12.6 40.85 9.875 38.125Q7.15 35.4 5.575 31.75Q4 28.1 4 24Q4 19.85 5.575 16.2Q7.15 12.55 9.875 9.85Q12.6 7.15 16.25 5.575Q19.9 4 24 4Q28.15 4 31.8 5.575Q35.45 7.15 38.15 9.85Q40.85 12.55 42.425 16.2Q44 19.85 44 24Q44 28.1 42.425 31.75Q40.85 35.4 38.15 38.125Q35.45 40.85 31.8 42.425Q28.15 44 24 44ZM27.5 33.8 36.3 25 33.8 22.5 27.5 28.8 26.5 29.8V15H22.5V32.3L27.5 33.8Z"/>
</svg> 